<svg xmlns="http://www.w3.org/2000/svg">
  <symbol id="icon-fb" viewBox="34.8 -4.7 13.5 27.8"><path d="M44.3 23h-6.8V10.1h-2.7V3.8h2.6c-.2-3 .3-5 1.5-6.5 1-1.2 2.6-1.9 4.6-2h4.8v6.1h-3.7c-.2.4-.3 1.1-.3 2.4h4V10h-4v13zM39 21.5h3.8V8.6h4V5.3h-4v-.8c0-2 0-3.8 1-4.4l.2-.2h2.8v-3.1h-3.2c-1.6 0-2.7.6-3.5 1.5-1 1.2-1.4 3.3-1.1 6.1v.9h-2.7v3.3H39v13z"/></symbol>
  <symbol id="icon-insta" viewBox="-3 -3 23 23"><path d="M14-1.5A4.5 4.5 0 0 1 18.5 3v11a4.5 4.5 0 0 1-4.5 4.5H3.01a4.5 4.5 0 0 1-4.5-4.5V3a4.5 4.5 0 0 1 4.5-4.5h11M14-3H3c-3.3 0-6 2.7-6 6v11c0 3.3 2.7 6 6 6h11c3.3 0 5.99-2.7 5.99-6V3c0-3.3-2.7-6-6-6z"/><path d="M8.5 4.08a4.43 4.43 0 1 1 0 8.87 4.43 4.43 0 0 1 0-8.87m0-1.5a5.93 5.93 0 1 0 0 11.86 5.93 5.93 0 0 0 0-11.86z"/><circle cx="14.65" cy="2.38" r="1.34"/></symbol>
  <symbol id="icon-vk" viewBox="3.01 11.63 30 15.76"><path d="M26.95 27.39c-.4 0-1.17-.08-2.08-.63a9.8 9.8 0 0 1-1.78-1.54c-.44-.44-1.17-1.17-1.45-1.17-.27.07-.48.92-.48 1.57 0 .1 0 .77-.46 1.2-.43.4-1.1.5-1.22.5l-1.93.01c-.96 0-4.35-.21-7.43-3.02-3.67-3.35-6.83-9.8-6.96-10.07-.2-.46-.25-1.06.15-1.48.39-.41 1.08-.47 1.36-.48l4.08-.02h.12c.09.02.56.1.95.36.39.24.6.65.63.73 0 .02.65 1.43 1.47 2.68 1.32 1.99 1.9 2.45 2.1 2.56.2-.42.28-1.7.2-2.87 0-.5-.1-1.1-.26-1.28-.11-.13-.42-.25-.78-.3l-.72-.68c-.1-.66.64-1.23 1.15-1.45.74-.31 1.8-.38 3.15-.38h.7c1.24.02 1.63.09 2.16.2 1.7.36 1.64 1.72 1.56 3.3-.02.47-.04 1-.04 1.63l-.01.48c-.02.38-.04 1.04.09 1.3.22-.14.85-.66 2.07-2.48.78-1.17 1.4-2.54 1.52-2.8.18-.44.6-.95 1.61-.95l4.28-.03.37-.01c.98 0 1.6.29 1.84.85.26.65.16 1.66-2.36 4.6l-.98 1.13a7.34 7.34 0 0 0-1.24 1.6c.06.17.66.66 1.25 1.14a14.34 14.34 0 0 1 3.04 3.08c.52.76.43 1.33.25 1.67-.42.87-1.63.98-1.87.99l-3.8.05h-.25zm-5.31-4.84c.9 0 1.68.78 2.5 1.62a8.8 8.8 0 0 0 1.5 1.3 2.5 2.5 0 0 0 1.4.41h.1l3.81-.05c.17-.01.41-.07.54-.14-.02-.04-.05-.1-.1-.16a13.07 13.07 0 0 0-2.69-2.72c-1.18-.97-1.8-1.47-1.86-2.25-.07-.8.5-1.44 1.6-2.7l.97-1.1c1.56-1.83 1.96-2.65 2.06-2.96a5.3 5.3 0 0 0-.68-.02l-4.36.03c-.19 0-.25.03-.25.03-.17.42-.81 1.81-1.64 3.05-1.9 2.82-2.79 3.2-3.4 3.2-.21 0-.4-.05-.58-.15-1-.56-.96-1.83-.93-2.75v-.43c0-.65.03-1.21.06-1.7.07-1.67.01-1.68-.38-1.77-.41-.08-.7-.15-1.86-.16h-.7c-.62 0-1.34.01-1.9.1.1.07.18.15.26.25.59.7.6 1.95.6 2.2.13 1.64.06 3.79-1.02 4.3-.19.1-.39.14-.6.14-.92 0-1.85-.88-3.42-3.27a22.86 22.86 0 0 1-1.58-2.88.47.47 0 0 0-.08-.1c-.08-.05-.23-.1-.32-.11l-4 .02h-.07c.59 1.2 3.43 6.6 6.52 9.42a9.95 9.95 0 0 0 6.42 2.63h1.85c.04 0 .21-.06.26-.1v-.1c0-.26 0-2.6 1.57-3.03.13-.03.26-.05.4-.05z"/></symbol>
  <symbol id="icon-mail" viewBox="0 0 17 13"><path d="M15.6 11.6H1.4V5.8H0V13h17V5.8h-1.4v5.8zM0 0v2.3l8.5 7.1L17 2.3V0H0zm15.6 1.6L8.5 7.5 1.4 1.6v-.2h14.2v.2z"/></symbol>
  <symbol id="icon-phone" viewBox="0 0 20 20"><path d="M17.9 9.4H9.4v1.2h8.5l-2.1 2.1.9.9 3.1-3.1c.2-.2.2-.6 0-.9l-3.1-3.1-.9.9 2.1 2zM8.1 19.4v-6.2c0-.3-.3-.6-.6-.6H3.1c0 .7.6 1.2 1.2 1.2h2.5v5H3.1c-1 .1-1.8-.7-1.9-1.7v-14c0-1 .8-1.8 1.7-1.8H6.8v5H4.4c-.7 0-1.2.6-1.2 1.2h4.4c.3 0 .6-.3.6-.6V.6C8.1.3 7.8 0 7.5 0H3.1A3 3 0 0 0 0 2.9V16.8a2.9 2.9 0 0 0 2.9 3.1H7.5c.3.1.6-.2.6-.5z"/></symbol>
  <symbol id="logo-htmlacademy" viewBox="0 0 26.94 34.09"><path d="M13.62.02L13.47 0 0 1.41v24.66l13.47 8.02L26.9 26.1l.04-.03V1.41L13.62.01zm11.4 12.1L13.49 5.34v-.1l-.08.05-.1-.06v.11L1.94 12.12V3.15l11.54-1.21 11.55 1.2v8.99zM13.4 6.8l11.52 6.71-4.48 2.64-7.09-4.22-.01 1.41 5.9 3.52-.86.5-5.03-2.99-.01 1.42 3.82 2.27-.78.52-3.03-1.78-.01 1.41 1.85 1.1-1.8 1.07-11.36-6.75L13.41 6.8zM1.93 15.13l11.4 6.79.02 1.04-7.94-4.73-.02 1.42 7.98 4.8.02 1.07-7.97-4.74-.01 1.42 8.02 4.82.04.02 8.14-4.87V17l3.4-2.03v10.02l-11.54 6.87-11.54-6.87v-9.85z"/></symbol>
</svg>
